<?xml version="1.0" standalone="yes"?>
<svg xmlns="http://www.w3.org/2000/svg" width="500" height="500">
<path style="fill:#0d478b; stroke:none;" d="M0 0L0 243L88 243C98.0181 243 115.239 239.789 123.907 245.738C128.314 248.764 130.106 254.269 132 259C135.591 267.969 139.141 276.97 142.576 286C150.966 308.056 159.666 329.995 168.189 352C172.913 364.196 176.524 377.62 183 389C187.448 383.631 189.705 376.367 192.421 370C196.991 359.291 201.791 348.682 206.424 338C219.8 307.165 235.096 276.993 248 246C256.48 258.406 261.097 274.996 266.424 289C274.436 310.061 283.055 330.893 290.95 352L300.05 376C301.965 381.135 303.48 386.736 307 391C313.144 379.462 316.813 366.224 321.424 354C330.349 330.338 338.956 306.537 348.203 283C351.861 273.689 355.168 264.237 359.012 255C360.444 251.557 362.088 246.135 365.39 244.028C368.224 242.22 372.801 243 376 243L402 243L500 243L500 0L0 0z"/>
<path style="fill:#fbfcfd; stroke:none;" d="M139.055 114.742C129.151 118.815 135.673 135.779 145.996 132.091C158.425 127.651 150.835 109.898 139.055 114.742M204.043 116.757C192.984 120.933 200.2 137.442 210.985 133.396C222.18 129.195 214.545 112.791 204.043 116.757M0 243L0 259L87 259C94.2431 259 101.805 258.387 109 259.286C111.904 259.649 115.241 260.012 117.301 262.317C120.005 265.342 121.02 270.28 122.424 274L131.192 297C141.601 324.373 151.925 351.809 162.8 379C166.541 388.354 170.047 397.867 174.309 406.999C175.81 410.215 177.815 414.601 182.012 414.493C185.81 414.395 188.404 410.836 190.301 407.985C195.382 400.35 198.919 391.382 202.576 383C211.466 362.619 220.727 342.4 229.576 322C235.18 309.079 240.034 295.241 247 283C254.207 300.567 260.952 318.293 267.811 336C272.46 348.003 277.02 360.049 281.8 372C286.341 383.353 290.768 394.759 295.579 406C297.329 410.091 299.113 416.352 304.043 417.526C316.261 420.436 320.403 399 323.6 391C336.29 359.252 347.655 326.957 359.808 295L369.192 270C370.409 266.801 371.319 262.011 374.394 260.028C377.209 258.212 381.815 259 385 259L409 259L500 259L500 243L401 243L375 243C371.943 243 367.293 242.173 364.637 244.028C361.51 246.211 359.981 251.626 358.603 255C354.822 264.259 351.423 273.675 347.811 283C333.911 318.885 320.916 355.122 307 391C299.734 378.504 295.709 363.496 290.576 350C282.817 329.603 274.693 309.349 266.811 289C261.26 274.67 256.238 259.576 249 246C245.178 249.782 243.065 255.164 240.781 260C236.57 268.914 232.746 278.013 228.694 287C218.953 308.608 209.445 330.322 199.86 352C194.414 364.319 189.798 377.353 183 389C169.179 355.313 155.96 321.155 143.319 287C139.845 277.615 136.117 268.291 132.4 259C130.577 254.443 128.991 248.749 124.815 245.738C116.617 239.829 99.5863 243 90 243L0 243z"/>
<path style="fill:#0d478b; stroke:none;" d="M0 259L0 500L500 500L500 259L406 259L382 259C379.153 259.001 375.197 258.366 372.995 260.603C370.348 263.292 369.341 268.538 368.05 272L359.05 296C348.474 324.368 337.626 352.633 327.05 381C323.353 390.916 319.946 401.573 315.095 410.985C313.214 414.633 309.478 418.057 305.015 417.381C300.859 416.751 298.886 412.391 297.309 409C293.662 401.158 290.61 393.026 287.4 385C278.895 363.739 270.566 342.402 262.424 321C257.64 308.422 253.667 294.715 247 283C239.896 291.793 236.2 305.616 231.719 316C222.477 337.418 212.73 358.612 203.424 380C199.628 388.726 195.99 397.912 190.934 405.999C189.097 408.939 186.654 413.064 182.989 413.914C178.704 414.907 176.319 410.14 174.785 406.999C170.363 397.948 166.939 388.346 163.2 379C152.057 351.144 141.472 323.042 130.808 295C127.892 287.332 124.916 279.687 122.05 272C120.833 268.736 119.901 264.08 117.301 261.6C115.263 259.655 111.664 259.429 109 259.17C101.44 258.434 93.5923 259 86 259L0 259z"/>
</svg>
